<svg width="15" height="23" viewBox="0 0 15 23" fill="none" xmlns="http://www.w3.org/2000/svg">
<path d="M14.6973 16.1197C14.8508 16.2754 14.9369 16.4852 14.9369 16.7038C14.9369 16.9225 14.8508 17.1323 14.6973 17.2879C13.7542 18.2262 12.5914 18.9137 11.3148 19.2877V21.6802C11.3148 21.899 11.2278 22.1089 11.0731 22.2636C10.9184 22.4183 10.7086 22.5052 10.4898 22.5052C10.2709 22.5052 10.0611 22.4183 9.90639 22.2636C9.75167 22.1089 9.66475 21.899 9.66475 21.6802V19.6144C9.42055 19.6375 9.17635 19.6507 8.92885 19.6507C8.59789 19.6498 8.26728 19.6289 7.93885 19.588V21.6802C7.93885 21.899 7.85193 22.1089 7.69722 22.2636C7.5425 22.4183 7.33266 22.5052 7.11385 22.5052C6.89505 22.5052 6.68521 22.4183 6.53049 22.2636C6.37577 22.1089 6.28885 21.899 6.28885 21.6802V19.1953C4.70557 18.6389 3.33356 17.6056 2.36147 16.2376C1.38939 14.8696 0.864978 13.2341 0.860352 11.5558C0.864096 9.87571 1.38884 8.2381 2.36227 6.86868C3.33569 5.49927 4.70988 4.46546 6.29545 3.90975V1.43145C6.29545 1.21264 6.38237 1.0028 6.53709 0.848082C6.69181 0.693365 6.90165 0.606445 7.12045 0.606445C7.33926 0.606445 7.5491 0.693365 7.70382 0.848082C7.85853 1.0028 7.94545 1.21264 7.94545 1.43145V3.52365C8.51575 3.45048 9.09247 3.44162 9.66475 3.49725V1.43145C9.66475 1.21264 9.75167 1.0028 9.90639 0.848082C10.0611 0.693365 10.2709 0.606445 10.4898 0.606445C10.7086 0.606445 10.9184 0.693365 11.0731 0.848082C11.2278 1.0028 11.3148 1.21264 11.3148 1.43145V3.82065C12.5926 4.19706 13.7556 4.88806 14.6973 5.83035C14.8473 5.98615 14.9302 6.19467 14.928 6.41099C14.9258 6.62731 14.8388 6.83411 14.6856 6.98686C14.5324 7.13962 14.3254 7.22609 14.109 7.22765C13.8927 7.22922 13.6844 7.14576 13.5291 6.99524C12.6506 6.12011 11.5358 5.5203 10.3215 5.26935C9.33578 5.0413 8.30924 5.05829 7.33165 5.31885C6.22733 5.61027 5.21975 6.18864 4.41115 6.99524C3.61033 7.79772 3.03511 8.79705 2.74343 9.89258C2.45174 10.9881 2.4539 12.1412 2.74967 13.2356C3.04545 14.33 3.6244 15.3272 4.42822 16.1267C5.23203 16.9262 6.23233 17.4997 7.32835 17.7895C8.29904 18.0504 9.319 18.0686 10.2984 17.8423C11.5214 17.5988 12.6453 16.9995 13.5291 16.1197C13.6057 16.0429 13.6967 15.982 13.797 15.9404C13.8972 15.8988 14.0046 15.8774 14.1132 15.8774C14.2217 15.8774 14.3291 15.8988 14.4293 15.9404C14.5296 15.982 14.6206 16.0429 14.6973 16.1197Z" fill="#4ABDF0"/>
</svg>
