<svg width="21" height="21" viewBox="0 0 21 21" fill="none" xmlns="http://www.w3.org/2000/svg">
<path fill-rule="evenodd" clip-rule="evenodd" d="M12.6 3.06486C13.1676 3.23513 13.7351 3.46216 14.2459 3.74595L16.5162 2.1C16.6865 1.98649 16.9135 2.04324 17.027 2.15676L18.7865 3.97297C18.9568 4.08649 18.9568 4.25676 18.8432 4.42703L17.2541 6.75405C17.5378 7.26486 17.7649 7.77567 17.9351 8.4L20.6595 8.85405C20.8865 8.85405 21 9.02432 21 9.19459V11.7486C21 11.9189 20.8865 12.0892 20.6595 12.0892L17.9351 12.6C17.7649 13.1676 17.5378 13.7351 17.2541 14.2459L18.9 16.5162C18.9568 16.6865 18.9568 16.9135 18.8432 17.027L17.027 18.7865C16.9135 18.9568 16.6865 18.9568 16.573 18.8432L14.2459 17.2541C13.7351 17.5378 13.1676 17.7649 12.6 17.9351L12.0892 20.6595C12.0892 20.8865 11.9189 21 11.7486 21H9.19459C9.02432 21 8.85405 20.8865 8.85405 20.6595L8.4 17.9351C7.77567 17.7649 7.20811 17.5378 6.6973 17.2541L4.42703 18.8432C4.25676 18.9568 4.08649 18.9568 3.97297 18.7865L2.15676 17.027C2.04324 16.9135 1.98649 16.6865 2.1 16.5162L3.74595 14.2459C3.46216 13.7351 3.23513 13.1676 3.06486 12.6L0.34054 12.0892C0.113513 12.0892 0 11.9189 0 11.7486V9.19459C0 9.02432 0.113513 8.85405 0.34054 8.85405L3.06486 8.4C3.23513 7.77567 3.46216 7.20811 3.74595 6.6973L2.15676 4.42703C2.04324 4.25676 2.04324 4.08649 2.21351 3.97297L3.97297 2.15676C4.08649 2.04324 4.31351 1.98649 4.48378 2.1L6.75405 3.74595C7.26486 3.46216 7.83243 3.23513 8.4 3.06486L8.85405 0.34054C8.85405 0.113513 9.02432 0 9.19459 0H11.7486C11.9189 0 12.0892 0.113513 12.0892 0.34054L12.6 3.06486ZM10.5 5.39189C7.66216 5.39189 5.39189 7.66216 5.39189 10.5C5.39189 13.3378 7.66216 15.6081 10.5 15.6081C13.3378 15.6081 15.6081 13.3378 15.6081 10.5C15.6081 7.66216 13.3378 5.39189 10.5 5.39189Z" fill="#4ABDF0"/>
</svg>
