<svg width="21" height="21" viewBox="0 0 21 21" fill="none" xmlns="http://www.w3.org/2000/svg">
<g clip-path="url(#clip0)">
<path d="M10.5 0C8.4233 0 6.39323 0.615814 4.66652 1.76957C2.9398 2.92332 1.59399 4.5632 0.79927 6.48182C0.00454947 8.40045 -0.203386 10.5116 0.201759 12.5484C0.606904 14.5852 1.60693 16.4562 3.07538 17.9246C4.54384 19.3931 6.41476 20.3931 8.45156 20.7982C10.4884 21.2034 12.5996 20.9955 14.5182 20.2007C16.4368 19.406 18.0767 18.0602 19.2304 16.3335C20.3842 14.6068 21 12.5767 21 10.5C21 7.71523 19.8938 5.04451 17.9246 3.07538C15.9555 1.10625 13.2848 0 10.5 0V0ZM11.2938 14.6748C11.298 15.3489 10.92 15.75 10.2585 15.75C9.597 15.75 9.156 15.3636 9.1539 14.7987C9.1539 14.0154 9.50461 13.6248 10.2039 13.6038C10.773 13.587 11.3652 13.9356 11.2938 14.6748ZM12.7638 9.828C12.4656 10.059 12.1527 10.269 11.8524 10.4958C11.6348 10.6384 11.4586 10.8357 11.3413 11.0679C11.2241 11.3001 11.1701 11.5591 11.1846 11.8188C11.1921 12.0062 11.1366 12.1908 11.027 12.343C10.9173 12.4953 10.7599 12.6064 10.5798 12.6588C10.388 12.7326 10.1772 12.7407 9.98033 12.6818C9.78347 12.6229 9.61172 12.5003 9.49201 12.3333C9.41356 12.2017 9.37085 12.0518 9.3681 11.8986C9.35294 11.424 9.45386 10.9529 9.66209 10.5262C9.87033 10.0995 10.1796 9.73007 10.563 9.45C10.9001 9.19346 11.218 8.91272 11.5143 8.61C11.6555 8.44362 11.7414 8.23736 11.76 8.0199C11.8083 7.4256 11.4261 7.0434 10.8108 7.0035C10.0674 6.9552 9.4416 7.1484 9.0069 7.8057C8.91577 7.96063 8.77937 8.08394 8.61605 8.15903C8.45274 8.23411 8.27034 8.25738 8.09341 8.2257C7.46341 8.1207 7.1925 7.6083 7.45081 7.0182C7.7212 6.44309 8.18604 5.98197 8.7633 5.7162C9.35623 5.42478 10.0054 5.26571 10.6659 5.25C11.0395 5.28902 11.4104 5.35002 11.7768 5.4327C12.8961 5.7498 13.5618 6.6444 13.6458 7.833C13.6863 8.21386 13.6259 8.59867 13.4708 8.94883C13.3156 9.29899 13.0711 9.60219 12.7617 9.828H12.7638Z" fill="#4ABDF0"/>
</g>
<defs>
<clipPath id="clip0">
<rect width="21" height="21" fill="white"/>
</clipPath>
</defs>
</svg>
