<svg height='100px' width='100px'  fill="#1d84d7" xmlns="http://www.w3.org/2000/svg" xmlns:xlink="http://www.w3.org/1999/xlink" version="1.1" x="0px" y="0px" viewBox="0 0 100 100" enable-background="new 0 0 100 100" xml:space="preserve"><path d="M73.598,37.182h-2.869v-8.773c0-11.432-9.299-20.73-20.729-20.73s-20.729,9.299-20.729,20.73v8.773h-2.869  c-5.242,0-9.506,4.266-9.506,9.508v36.127c0,5.242,4.264,9.506,9.506,9.506h47.195c5.242,0,9.506-4.264,9.506-9.506V46.689  C83.104,41.447,78.84,37.182,73.598,37.182z M37.721,28.408c0-6.771,5.508-12.279,12.279-12.279s12.279,5.508,12.279,12.279v8.773  H37.721V28.408z"></path></svg>