<svg width="573" height="406" viewBox="0 0 573 406" fill="none" xmlns="http://www.w3.org/2000/svg">
<g clip-path="url(#clip0)">
<path opacity="0.1" d="M453.2 348.393C518.138 348.393 570.781 338.162 570.781 325.541C570.781 312.92 518.138 302.689 453.2 302.689C388.262 302.689 335.619 312.92 335.619 325.541C335.619 338.162 388.262 348.393 453.2 348.393Z" fill="#006AF5"/>
<g opacity="0.5">
<path opacity="0.5" d="M352.486 57.6072C350.901 58.0577 348.959 59.2315 348.002 62.4412C346.127 68.7326 350.483 73.0103 349.048 79.5687C348.65 81.3085 347.892 82.9456 346.823 84.3749C345.07 86.7502 343.168 87.8739 341.321 89.5371C338.978 91.662 337.299 94.4186 336.487 97.4751C335.596 100.849 335.522 104.386 336.27 107.794C336.926 110.642 338.044 112.717 339.023 115.025C340.241 117.97 341.192 121.018 341.866 124.132C342.236 125.648 342.445 127.199 342.489 128.76C342.461 130.833 342.275 132.901 341.933 134.946L339.268 153.536C338.863 155.967 338.62 158.422 338.539 160.884C338.574 163.353 338.859 165.811 339.391 168.222C340.325 173.139 341.332 178.235 343.474 180.838C345.616 183.441 349.265 182.507 351.507 177.239C353.638 172.199 353.688 165.474 355.568 160.089C358.533 151.606 364.424 150.466 367.695 142.372C370.833 134.584 369.871 125.083 371.462 116.227C372.574 109.88 375.027 104.095 376.468 97.8256C378.538 88.7973 378.332 79.4241 376.68 72.4818C375.423 66.7777 372.705 61.4984 368.791 57.1621C367.406 55.6324 365.921 54.2695 364.18 54.1305C362.327 53.9858 360.708 56.3166 358.878 57.0175C356.764 57.8464 354.639 56.9953 352.486 57.6072Z" fill="#006AF5"/>
<path opacity="0.5" d="M362.516 54.6035C362.516 54.6035 359.378 134.896 346.183 182.24" stroke="#535461" stroke-width="2" stroke-miterlimit="10"/>
<path opacity="0.5" d="M347.924 62.8193C347.924 62.8193 362.026 75.6581 359.35 100.09" stroke="#535461" stroke-width="2" stroke-miterlimit="10"/>
<path opacity="0.5" d="M336.092 99.3555C336.092 99.3555 359.24 104.011 357.521 117.857" stroke="#535461" stroke-width="2" stroke-miterlimit="10"/>
<path opacity="0.5" d="M376.719 72.3145C376.719 72.3145 367.35 80.5139 359.006 103.738" stroke="#535461" stroke-width="2" stroke-miterlimit="10"/>
<path opacity="0.5" d="M367.567 142.505C367.567 142.505 361.175 147.512 356.046 129.983" stroke="#535461" stroke-width="2" stroke-miterlimit="10"/>
<path opacity="0.5" d="M339.986 152.746C339.986 152.746 353.021 151.044 354.222 142.884" stroke="#535461" stroke-width="2" stroke-miterlimit="10"/>
</g>
<path d="M383.995 3.75448C380.769 4.23287 376.886 5.72924 375.289 10.3407C372.157 19.3857 381.675 26.2334 379.484 35.6844C378.83 38.2853 377.453 40.6479 375.512 42.4988C372.174 45.7863 368.358 47.2215 364.742 49.4521C361.126 51.6828 357.371 55.1929 355.674 60.5776C354.044 65.7564 354.75 71.4749 356.447 75.7471C358.144 80.0192 360.708 83.2067 363 86.7223C365.786 91.0495 368.114 95.6542 369.949 100.462C370.874 102.654 371.495 104.961 371.796 107.321C372.09 110.214 371.718 113.323 371.345 116.366L368.035 143.479C367.595 147.083 367.15 150.744 367.401 154.215C367.684 158.214 368.869 161.708 370.038 165.118C372.552 172.471 375.245 180.137 379.99 184.187C384.735 188.236 392.179 187.368 396.189 179.837C400.006 172.666 399.305 162.77 402.559 155.066C407.688 142.922 419.749 141.938 425.551 130.412C431.114 119.353 428.005 105.207 430.241 92.3573C431.843 83.151 436.182 74.9182 438.407 65.8566C441.617 52.8009 440.076 38.9776 435.837 28.5864C431.598 18.1953 424.895 10.7857 417.702 5.09509C414.653 2.67531 411.421 0.489167 407.8 0.0886517C403.95 -0.339677 400.874 2.89782 397.174 3.71554C392.868 4.61113 388.373 3.10364 383.995 3.75448Z" fill="#006AF5"/>
<path d="M404.401 0.517578C404.401 0.517578 407.438 118.386 385.731 186.546" stroke="#535461" stroke-width="2" stroke-miterlimit="10"/>
<path d="M375.167 10.9082C375.167 10.9082 405.875 31.4902 403.244 67.1806" stroke="#535461" stroke-width="2" stroke-miterlimit="10"/>
<path d="M355.012 63.293C355.012 63.293 403.477 72.8942 401.563 93.0757" stroke="#535461" stroke-width="2" stroke-miterlimit="10"/>
<path d="M435.893 28.2861C435.893 28.2861 417.473 39.2502 402.965 72.4596" stroke="#535461" stroke-width="2" stroke-miterlimit="10"/>
<path d="M425.262 130.568C425.262 130.568 412.634 137.243 399.934 110.759" stroke="#535461" stroke-width="2" stroke-miterlimit="10"/>
<path d="M369.393 142.366C369.393 142.366 396.168 141.404 397.692 129.527" stroke="#535461" stroke-width="2" stroke-miterlimit="10"/>
<path d="M37.4117 321.853C37.4117 321.853 42.0736 327.972 35.2588 337.15C28.4441 346.328 22.8143 354.127 25.1007 359.868C25.1007 359.868 35.3812 342.774 43.7481 342.535C52.1149 342.296 46.6186 332.132 37.4117 321.853Z" fill="#006AF5"/>
<path opacity="0.1" d="M37.4115 321.853C37.8275 322.44 38.1572 323.085 38.3906 323.766C46.5571 333.356 50.9019 342.307 43.058 342.535C35.7481 342.746 26.9808 355.813 24.8779 359.117C24.9473 359.372 25.0309 359.623 25.1283 359.868C25.1283 359.868 35.4088 342.774 43.7756 342.535C52.1424 342.296 46.6183 332.132 37.4115 321.853Z" fill="black"/>
<path d="M46.0784 329.624C46.0784 331.771 45.8392 333.517 45.5221 333.517C45.205 333.517 44.9658 331.776 44.9658 329.624C44.9658 327.471 45.2662 328.511 45.5611 328.511C45.8559 328.511 46.0784 327.476 46.0784 329.624Z" fill="#FFD037"/>
<path d="M49.0554 332.183C47.1695 333.212 45.5284 333.852 45.3894 333.568C45.2503 333.284 46.6577 332.261 48.5436 331.237C50.4295 330.214 49.684 330.959 49.8287 331.237C49.9733 331.515 50.9357 331.154 49.0554 332.183Z" fill="#FFD037"/>
<path d="M12.8003 321.853C12.8003 321.853 8.13845 327.972 14.9532 337.15C21.7679 346.328 27.3866 354.122 25.1113 359.863C25.1113 359.863 14.8308 342.768 6.46397 342.529C-1.90286 342.29 3.58231 332.132 12.8003 321.853Z" fill="#006AF5"/>
<path opacity="0.1" d="M12.8003 321.853C12.394 322.442 12.0737 323.086 11.849 323.766C3.68245 333.356 -0.662299 342.307 7.18161 342.535C14.4915 342.746 23.2588 355.813 25.3617 359.117C25.2923 359.372 25.2087 359.623 25.1113 359.868C25.1113 359.868 14.8308 342.774 6.46397 342.535C-1.90286 342.296 3.58231 332.132 12.8003 321.853Z" fill="black"/>
<path d="M4.12207 329.624C4.12207 331.771 4.36128 333.517 4.67838 333.517C4.99547 333.517 5.23468 331.776 5.23468 329.624C5.23468 327.471 4.93428 328.511 4.63943 328.511C4.34459 328.511 4.12207 327.476 4.12207 329.624Z" fill="#FFD037"/>
<path d="M1.14565 332.183C3.03152 333.212 4.67262 333.852 4.8117 333.568C4.95077 333.284 3.54332 332.261 1.65745 331.237C-0.228427 330.214 0.517023 330.959 0.372384 331.237C0.227745 331.515 -0.734664 331.154 1.14565 332.183Z" fill="#FFD037"/>
<path d="M5.60742 359.067C5.60742 359.067 18.6417 358.667 22.5692 355.869C26.4967 353.071 42.5962 349.75 43.5919 354.2C44.5877 358.65 63.1795 376.512 48.4652 376.629C33.7509 376.745 14.2747 374.337 10.3527 371.95C6.43075 369.564 5.60742 359.067 5.60742 359.067Z" fill="#A8A8A8"/>
<path opacity="0.2" d="M48.7267 375.083C34.0124 375.199 14.5361 372.791 10.6142 370.404C7.62681 368.585 6.43632 362.06 6.04134 359.051H5.60742C5.60742 359.051 6.43075 369.564 10.3527 371.951C14.2747 374.337 33.7509 376.751 48.4652 376.629C52.7154 376.596 54.1784 375.083 54.1006 372.846C53.5109 374.215 51.892 375.06 48.7267 375.083Z" fill="black"/>
<path d="M546.492 319.322C547.511 318.491 548.254 317.369 548.623 316.106C548.901 314.827 548.355 313.297 547.132 312.83C545.763 312.307 544.3 313.253 543.193 314.215C542.086 315.178 540.812 316.268 539.36 316.062C540.106 315.386 540.665 314.527 540.98 313.571C541.296 312.615 541.359 311.593 541.162 310.605C541.1 310.196 540.927 309.811 540.662 309.492C539.9 308.68 538.526 309.031 537.613 309.67C534.72 311.706 533.914 315.634 533.897 319.172C533.608 317.898 533.853 316.568 533.841 315.278C533.83 313.987 533.474 312.496 532.373 311.818C531.69 311.451 530.923 311.268 530.148 311.289C528.846 311.239 527.399 311.373 526.509 312.324C525.397 313.503 525.692 315.489 526.654 316.774C527.616 318.059 529.074 318.888 530.42 319.789C531.499 320.43 532.42 321.307 533.113 322.353C533.194 322.499 533.261 322.651 533.313 322.81H541.463C543.289 321.879 544.981 320.706 546.492 319.322Z" fill="#006AF5"/>
<path opacity="0.1" d="M81.6266 267.188C99.3282 289.695 92.4523 322.576 81.2038 348.904C77.4376 357.721 73.1763 367.05 74.7674 376.501C76.7089 388.06 87.0061 396.527 97.8651 400.977C117.614 409.143 141.257 407.196 159.398 395.909C175.08 386.152 186.312 370.287 202.261 360.975C228.964 345.4 262.932 351.28 291.916 362.01C312.421 369.603 334.84 379.483 355.218 371.545C369.554 365.982 379.467 352.37 384.869 337.962C387.478 331.003 389.369 323.499 394.326 317.937C397.285 314.66 401.146 312.329 405.107 310.371C441.267 292.454 486.884 302.027 521.976 282.18C545.68 268.762 560.856 243.446 567.593 217.051C574.329 190.656 573.528 162.976 571.82 135.797C570.608 116.478 568.433 95.8566 556.088 80.943C543.032 65.1727 520.618 59.304 500.363 62.3023C480.108 65.3006 461.739 76.0367 445.606 88.6195C425.418 104.345 406.698 123.932 381.909 130.306C365.031 134.645 347.273 132.27 329.861 131.452C300.755 130.078 271.644 133.121 242.699 136.459C214.99 139.663 187.069 143.19 160.683 152.201C142.002 158.582 127.027 170.158 109.386 178.246C97.8874 183.519 85.3483 184.977 74.467 191.691C61.0544 199.963 48.7657 214.353 52.2147 231.186C55.4524 247.212 72.225 255.245 81.6266 267.188Z" fill="#006AF5"/>
<path opacity="0.1" d="M307.275 267.177C438.672 267.177 545.191 256.946 545.191 244.325C545.191 231.705 438.672 221.474 307.275 221.474C175.879 221.474 69.3604 231.705 69.3604 244.325C69.3604 256.946 175.879 267.177 307.275 267.177Z" fill="#006AF5"/>
<path opacity="0.1" d="M124.423 399.013C189.361 399.013 242.004 388.782 242.004 376.161C242.004 363.541 189.361 353.31 124.423 353.31C59.4854 353.31 6.84277 363.541 6.84277 376.161C6.84277 388.782 59.4854 399.013 124.423 399.013Z" fill="#006AF5"/>
<path d="M244.619 237.199L242.755 239.908C242.755 239.908 244.785 242.617 244.98 242.957C245.175 243.296 250.905 242.79 250.905 242.79L251.411 240.759L250.565 238.39L244.619 237.199Z" fill="#E6E6F0"/>
<path d="M181.962 235.676L178.234 236.349L180.604 240.927L183.147 242.279L185.516 243.97L186.195 242.112L184.498 238.552L181.962 235.676Z" fill="#FDC2CC"/>
<path d="M242.927 191.647C242.927 191.647 262.743 196.386 266.465 201.66C266.465 201.66 269.852 204.541 266.465 209.787C263.077 215.033 258.337 226.892 258.337 226.892C258.337 226.892 254.949 238.407 253.597 239.253C252.245 240.098 244.452 240.777 243.773 237.584C243.773 237.584 248.173 230.642 248.173 227.421C248.173 224.2 255.455 208.964 255.455 208.964C255.455 208.964 238.861 207.1 233.609 208.285C228.358 209.47 235.985 189.783 242.927 191.647Z" fill="#565171"/>
<path opacity="0.1" d="M242.927 191.647C242.927 191.647 262.743 196.386 266.465 201.66C266.465 201.66 269.852 204.541 266.465 209.787C263.077 215.033 258.337 226.892 258.337 226.892C258.337 226.892 254.949 238.407 253.597 239.253C252.245 240.098 244.452 240.777 243.773 237.584C243.773 237.584 248.173 230.642 248.173 227.421C248.173 224.2 255.455 208.964 255.455 208.964C255.455 208.964 238.861 207.1 233.609 208.285C228.358 209.47 235.985 189.783 242.927 191.647Z" fill="black"/>
<path d="M238.86 196.22C238.822 197.204 238.716 198.311 238.566 199.502C237.481 208.124 233.948 220.946 233.948 220.946C233.948 220.946 230.394 228.567 229.375 233.479C228.357 238.39 221.415 239.598 221.415 239.598C221.415 239.598 202.445 241.823 198.551 240.955C194.656 240.087 188.537 243.497 185.511 242.985C182.485 242.474 180.599 235.364 180.599 235.364C185.851 235.395 191.049 234.299 195.841 232.149C203.63 228.595 214.811 230.286 214.811 230.286C215.645 230.043 216.421 229.633 217.091 229.08C217.76 228.527 218.31 227.843 218.706 227.07C219.89 224.528 219.89 209.119 219.551 208.102C217.326 201.426 217.509 197.143 218.149 194.645C218.363 193.554 218.845 192.534 219.551 191.675L238.86 196.22Z" fill="#565171"/>
<path opacity="0.1" d="M238.861 196.219C238.822 197.204 238.716 198.311 238.566 199.501C236.864 199.635 232.091 199.762 228.553 197.576C225.215 195.529 220.358 194.834 218.172 194.617C218.386 193.526 218.868 192.505 219.574 191.646L238.861 196.219Z" fill="black"/>
<path d="M241.203 194.1C240.413 196.325 239.2 198.934 239.2 198.934C239.2 198.934 232.936 199.779 228.53 197.07C224.124 194.361 217.015 194.022 217.015 194.022C218.166 193.315 218.945 191.168 219.429 189.288C219.699 188.225 219.911 187.148 220.063 186.062C220.063 186.062 240.891 190.295 241.759 190.973C242.082 191.24 241.737 192.587 241.203 194.1Z" fill="#E6E6F0"/>
<path d="M278.32 122.724L253.058 137.972L250.549 139.485V132.036L252.29 131.202L273.58 121.027C273.58 121.027 274.598 102.57 277.307 105.452C280.016 108.333 278.32 122.724 278.32 122.724Z" fill="#FDC2CC"/>
<path opacity="0.1" d="M253.058 137.972L250.549 139.485V132.037L252.29 131.202C252.405 133.472 252.662 135.733 253.058 137.972Z" fill="black"/>
<path d="M233.615 140.698L251.734 130.201C251.734 130.201 252.073 140.364 254.104 141.883C254.104 141.883 246.655 144.108 243.773 148.825L233.615 140.698Z" fill="#B45181"/>
<path opacity="0.1" d="M233.615 140.698L251.734 130.201C251.734 130.201 252.073 140.364 254.104 141.883C254.104 141.883 246.655 144.108 243.773 148.825L233.615 140.698Z" fill="black"/>
<path d="M278.158 149.648C278.158 149.648 269.541 153.403 263.833 154.782C262.549 155.17 261.205 155.324 259.866 155.238C255.972 154.56 260.884 149.676 260.884 149.676L262.932 149.359L273.924 147.645C273.924 147.645 275.109 130.712 277.14 132.07C279.17 133.427 278.158 149.648 278.158 149.648Z" fill="#FDC2CC"/>
<path d="M241.742 134.406C241.742 134.406 234.46 139.824 237.169 146.6C239.878 153.375 223.111 142.533 223.111 142.533C223.111 142.533 228.53 134.406 229.715 128.31C230.9 122.213 241.742 134.406 241.742 134.406Z" fill="#FDC2CC"/>
<path opacity="0.1" d="M241.203 194.1C238.053 192.914 234.761 192.147 231.412 191.819C226.516 191.263 222.033 190.323 219.435 189.288C219.705 188.225 219.916 187.148 220.069 186.062C220.069 186.062 240.897 190.295 241.765 190.973C242.082 191.24 241.737 192.587 241.203 194.1Z" fill="black"/>
<path opacity="0.1" d="M263.828 154.782C262.544 155.169 261.2 155.324 259.862 155.238C255.967 154.56 260.88 149.675 260.88 149.675L262.927 149.358C263.784 150.677 264.657 152.735 263.828 154.782Z" fill="black"/>
<path d="M229.887 137.455C229.887 137.455 223.284 137.288 220.914 139.997C218.544 142.706 219.05 150.01 219.05 150.01C219.05 150.01 218.555 164.634 222.266 172.817C222.388 173.081 222.402 173.383 222.305 173.657C222.266 173.757 222.266 173.696 222.266 173.696C222.266 173.696 219.896 184.365 217.526 186.229C215.156 188.092 222.605 190.295 231.434 191.307C240.262 192.32 243.795 194.862 243.795 194.862C243.795 194.862 245.319 193.193 245.464 189.444C245.608 185.695 243.111 158.454 243.111 158.454C243.111 158.454 252.423 160.824 258.014 157.948C258.014 157.948 260.556 159.305 262.926 155.578C265.296 151.851 261.257 147.79 261.257 147.79C261.257 147.79 257.53 151.517 247.199 146.605C236.869 141.694 233.097 137.288 229.887 137.455Z" fill="#B45181"/>
<path d="M179.252 236.015H177.222V238.896L179.252 243.469C179.252 243.469 181.961 243.975 182.134 243.975C182.306 243.975 184.504 243.469 184.504 243.469L185.182 242.284C185.182 242.284 177.728 239.397 179.252 236.015Z" fill="#E6E6F0"/>
<path d="M242.927 238.724L239.879 245.499L252.752 251.618L262.916 251.958C262.916 251.958 263.761 249.588 260.373 248.403L257.664 247.897C257.664 247.897 254.109 241.461 253.77 238.44C253.77 238.44 250.382 239.119 249.876 241.656C249.87 241.6 245.13 243.97 242.927 238.724Z" fill="#B45181"/>
<path d="M177.729 235.336L176.694 236.181L172.144 239.908L182.641 253.815C182.641 253.815 188.566 256.357 191.28 253.815C191.28 253.815 192.949 252.146 189.25 250.767C189.25 250.767 186.368 251.273 186.368 248.397C186.368 245.521 187.047 242.473 188.037 241.794C188.037 241.794 185.495 240.949 184.822 241.627C184.304 242.198 183.849 242.823 183.464 243.491C183.464 243.491 177.39 241.093 177.729 235.336Z" fill="#B45181"/>
<path opacity="0.1" d="M229.382 128.648C229.21 129.508 228.983 130.355 228.703 131.185C229.583 133.301 231.253 134.991 233.358 135.895C235.464 136.8 237.839 136.848 239.979 136.03C240.426 135.57 240.904 135.14 241.409 134.745C241.409 134.745 230.567 122.552 229.382 128.648Z" fill="black"/>
<path opacity="0.1" d="M228.446 151.267C228.446 151.267 233.698 158.209 241.319 158.381L228.446 151.267Z" fill="black"/>
<g opacity="0.1">
<path opacity="0.1" d="M259.834 158.065C259.727 158.035 259.622 157.996 259.522 157.948C259.359 158.034 259.192 158.113 259.021 158.187C259.296 158.182 259.569 158.141 259.834 158.065Z" fill="black"/>
<path opacity="0.1" d="M261.636 148.485C261.452 148.249 261.255 148.022 261.046 147.807C261.046 147.807 259.934 148.919 257.186 149.131C258.699 149.281 260.227 149.059 261.636 148.485Z" fill="black"/>
<path opacity="0.1" d="M244.618 158.454L244.652 158.816C246.886 159.229 249.156 159.416 251.427 159.372C249.133 159.288 246.853 158.981 244.618 158.454Z" fill="black"/>
<path opacity="0.1" d="M232.936 191.319C224.13 190.301 216.681 188.103 219.028 186.24C221.376 184.376 223.768 173.707 223.768 173.707C223.768 173.707 223.768 173.768 223.807 173.668C223.904 173.394 223.891 173.092 223.768 172.828C220.058 164.623 220.553 150.021 220.553 150.021C220.553 150.021 220.046 142.74 222.416 140.008C224.18 137.989 228.291 137.572 230.277 137.488C230.092 137.474 229.906 137.474 229.721 137.488C229.721 137.488 223.117 137.321 220.747 140.03C218.378 142.739 218.884 150.043 218.884 150.043C218.884 150.043 218.389 164.668 222.099 172.85C222.222 173.115 222.236 173.416 222.138 173.69C222.099 173.791 222.099 173.729 222.099 173.729C222.099 173.729 219.746 184.365 217.354 186.229C214.962 188.092 222.433 190.295 231.262 191.308C240.09 192.32 243.623 194.862 243.623 194.862C243.8 194.649 243.956 194.42 244.09 194.178C242.371 193.349 238.833 191.986 232.936 191.319Z" fill="black"/>
</g>
<path d="M237.17 136.27C242.033 136.27 245.976 132.327 245.976 127.464C245.976 122.601 242.033 118.658 237.17 118.658C232.306 118.658 228.363 122.601 228.363 127.464C228.363 132.327 232.306 136.27 237.17 136.27Z" fill="#FDC2CC"/>
<path opacity="0.1" d="M249.703 123.525C248.974 125.35 246.799 126.04 244.891 126.512C242.165 127.18 239.228 127.836 236.619 126.802C236.281 126.612 235.891 126.536 235.506 126.585C235.196 126.709 234.937 126.934 234.772 127.224C231.896 131.319 232.363 136.776 231.618 141.726C231.384 143.267 230.989 144.858 229.949 146.01C227.924 148.235 224.102 148.151 222.238 150.516C221.009 152.073 220.998 154.237 221.009 156.223C221.009 158.34 220.99 160.46 220.953 162.581C220.92 163.972 220.853 165.412 220.225 166.647C219.156 168.739 216.775 169.735 214.578 170.541C213.21 171.053 211.797 171.57 210.328 171.431C208.859 171.292 207.391 170.319 207.201 168.85C206.94 166.859 208.993 165.468 210.406 164.033C212.664 161.747 213.593 158.42 213.677 155.205C213.756 153.906 213.567 152.605 213.121 151.383C212.603 150.121 211.68 149.058 211.123 147.812C209.41 143.974 211.524 139.535 214.055 136.175C216.586 132.815 219.696 129.539 220.236 125.372C220.283 124.47 220.411 123.575 220.62 122.696C221.009 121.484 221.932 118.135 222.95 117.367C224.58 116.14 226.494 115.344 228.513 115.053C230.077 114.825 231.673 114.909 233.225 114.608C235.039 114.258 236.725 113.396 238.538 113.073C242.46 112.378 246.716 116.933 248.435 120.527C248.908 121.628 250.148 122.407 249.703 123.525Z" fill="black"/>
<path d="M249.703 123.186C248.974 125.011 246.799 125.701 244.891 126.174C242.165 126.841 239.228 127.497 236.619 126.463C236.281 126.273 235.891 126.197 235.506 126.246C235.196 126.37 234.937 126.596 234.772 126.886C231.896 130.98 232.363 136.437 231.618 141.388C231.384 142.928 230.989 144.519 229.949 145.671C227.924 147.896 224.102 147.813 222.238 150.177C221.009 151.734 220.998 153.898 221.009 155.884C221.009 158.002 220.99 160.121 220.953 162.242C220.92 163.633 220.853 165.074 220.225 166.309C219.156 168.4 216.775 169.396 214.578 170.202C213.21 170.714 211.797 171.232 210.328 171.092C208.859 170.953 207.391 169.98 207.201 168.511C206.94 166.52 208.993 165.129 210.406 163.694C212.664 161.408 213.593 158.081 213.677 154.866C213.756 153.567 213.567 152.266 213.121 151.044C212.603 149.782 211.68 148.719 211.123 147.473C209.41 143.635 211.524 139.196 214.055 135.836C216.586 132.476 219.696 129.2 220.236 125.033C220.283 124.132 220.411 123.236 220.62 122.358C221.009 121.145 221.932 117.796 222.95 117.028C224.58 115.801 226.494 115.005 228.513 114.714C230.077 114.486 231.673 114.57 233.225 114.269C235.039 113.919 236.725 113.057 238.538 112.734C242.46 112.039 246.716 116.595 248.435 120.188C248.908 121.29 250.148 122.068 249.703 123.186Z" fill="#F569BC"/>
<path d="M278.158 106.259H424.561V252.642H278.158V106.259Z" fill="#F7DF1E"/>
<path d="M316.66 228.589L327.864 221.808C330.028 225.64 331.992 228.883 336.709 228.883C341.232 228.883 344.08 227.115 344.08 220.239V173.462H357.838V220.428C357.838 234.674 349.493 241.16 337.299 241.16C326.295 241.16 319.909 235.459 316.666 228.583L316.66 228.589ZM365.309 227.109L376.507 220.623C379.456 225.44 383.289 228.967 390.07 228.967C395.772 228.967 399.405 226.119 399.405 222.186C399.405 217.469 395.672 215.8 389.392 213.046L385.954 211.572C376.029 207.35 369.442 202.043 369.442 190.84C369.442 180.521 377.303 172.661 389.586 172.661C398.331 172.661 404.606 175.709 409.14 183.664L398.431 190.545C396.073 186.318 393.519 184.649 389.586 184.649C385.559 184.649 383 187.202 383 190.545C383 194.673 385.553 196.342 391.45 198.889L394.888 200.363C406.57 205.37 413.168 210.482 413.168 221.98C413.168 234.363 403.438 241.144 390.359 241.144C377.564 241.144 369.331 235.025 365.326 227.092" fill="black"/>
<path d="M488.781 333.879C488.781 333.879 483.068 334.28 479.541 328.161C478.851 326.929 478.037 325.771 477.11 324.706C475.971 322.839 475.379 320.69 475.402 318.504C475.597 313.97 470.868 289.138 470.868 289.138C470.868 289.138 471.458 279.682 466.729 273.769C463.614 269.875 459.135 258.749 456.437 251.562C456.618 251.724 456.836 251.838 457.072 251.896L456.96 251.279H457.072L455.675 243.608C453.642 241.271 451.929 238.674 450.579 235.887L450.897 235.82L455.08 234.941C455.08 234.941 461.878 225.278 462.312 220.528H462.868H463.653C469.945 220.493 476.234 220.822 482.489 221.512C482.489 221.485 482.445 221.362 482.389 221.168C482.124 220.212 481.92 219.24 481.777 218.258H482.166L486.061 218.002C486.061 218.002 499.462 203.028 494.533 200.268C489.604 197.509 484.481 212.684 484.481 212.684L482.812 212.985L482.361 213.068C482.406 213.002 482.45 212.94 482.5 212.879C482.55 212.818 460.626 211.9 457.25 206.571C457.25 206.571 447.592 198.883 447.197 193.777C447.126 192.717 446.764 191.698 446.152 190.831C445.54 189.963 444.7 189.281 443.726 188.859C442.533 188.29 441.211 188.043 439.893 188.142L435.37 188.453L435.687 189.01H435.559C435.275 188.359 435.038 187.69 434.847 187.007H434.942C434.908 186.868 434.881 186.729 434.853 186.59C436.239 186.263 437.545 185.661 438.694 184.82C439.844 183.979 440.812 182.916 441.543 181.694C442.274 180.472 442.753 179.116 442.95 177.706C443.147 176.295 443.059 174.86 442.691 173.484C443.134 173.541 443.582 173.528 444.021 173.445C445.69 173.106 446.863 171.415 446.908 169.724C446.908 169.612 446.908 169.501 446.908 169.395C446.908 169.395 446.908 169.351 446.908 169.329C446.891 168.479 446.685 167.644 446.305 166.883C445.925 166.123 445.38 165.457 444.71 164.934C443.809 164.183 442.73 163.649 441.929 162.815C440.955 161.819 440.421 160.484 439.665 159.31C438.397 157.369 436.518 155.906 434.324 155.155C432.694 154.599 430.692 154.543 429.44 155.711C428.795 156.318 428.422 157.196 427.699 157.708C426.658 158.454 425.245 158.231 423.971 158.381C422.818 158.559 421.726 159.017 420.791 159.717C419.857 160.416 419.109 161.335 418.614 162.392C417.99 163.715 417.688 165.168 417.735 166.631C417.721 167.634 417.841 168.635 418.091 169.607C418.336 170.575 418.698 171.509 418.965 172.477C419.521 174.48 419.649 176.588 420.289 178.563C420.718 180.028 421.577 181.332 422.753 182.306L422.564 183.119C422.442 183.119 419.371 183.803 417.251 188.437C415.582 192.091 409.902 195.863 407.405 197.387C406.939 197.672 406.534 198.047 406.215 198.49C405.896 198.934 405.669 199.436 405.547 199.968C405.307 201.043 405.2 202.144 405.229 203.245C405.185 205.62 405.68 208.907 407.588 213.074C411.922 222.53 415.076 226.669 415.076 226.669C415.076 226.669 415.315 229.567 415.332 232.621C415.332 234.896 415.165 237.16 414.681 238.295C414.269 239.252 414.125 241.694 414.158 244.486C414.158 249.838 414.681 256.819 414.681 256.819C414.681 256.819 416.189 257.108 418.52 257.448L419.972 282.992C420.154 286.085 419.16 289.133 417.19 291.525C416.171 292.783 414.995 293.904 413.691 294.862C409.552 297.816 400.684 328.956 400.684 328.956C400.684 328.956 401.118 328.956 401.83 329.04L399.104 336.644C399.104 336.644 409.997 344.988 416.623 342.707C417.34 342.473 418.094 342.368 418.848 342.396C420.155 342.396 422.953 341.361 421.396 339.998C418.388 337.228 415.551 334.278 412.901 331.165C413.114 331.269 413.319 331.39 413.513 331.526V331.465L413.607 331.526C413.607 331.526 413.607 331.22 413.68 330.72L413.585 330.686C413.785 328.639 414.42 323.455 415.677 322.854C417.251 322.064 428.884 299.007 428.884 299.007L440.51 269.051C440.51 269.051 449.773 285.016 457.656 287.77V294.445C457.656 294.445 461.989 314.154 463.569 316.318C465.149 318.482 463.569 327.154 463.569 327.154C463.881 327.511 464.238 327.825 464.632 328.088L463.369 335.231C463.369 335.231 472.437 334.836 487.807 339.564C487.796 339.592 493.71 337.033 488.781 333.879ZM452.521 230.813L450.602 231.292L450.223 231.386C450.184 231.147 450.157 231.008 450.157 231.008C449.716 231.207 449.243 231.322 448.76 231.347C448.08 229.193 447.687 226.957 447.592 224.7C446.946 221.998 446.553 219.242 446.418 216.467C446.418 215.032 446.657 213.78 447.197 213.074L447.837 213.124L448.282 213.547L448.315 213.575L448.543 213.78L448.783 213.992L448.822 214.025L449.077 214.253L449.122 214.292L449.383 214.515L449.678 214.759L449.745 214.815L450.057 215.065L450.362 215.31L450.435 215.366L450.774 215.622L450.846 215.672L451.169 215.911L451.225 215.95L451.592 216.211L451.681 216.272L452.07 216.539H452.104L452.482 216.79L452.571 216.851L452.977 217.112L453.066 217.168L453.444 217.402L453.517 217.446L453.951 217.702L454.056 217.763L454.507 218.014H454.54L454.98 218.247L455.086 218.303L455.553 218.536L455.647 218.581L456.081 218.781L456.165 218.82L456.654 219.032L456.771 219.082L457.277 219.287C454.134 222.747 452.521 230.813 452.521 230.813Z" fill="url(#paint0_linear)"/>
<path d="M403.911 324.356L400.256 334.553C400.256 334.553 410.269 342.229 416.778 340.639C417.759 340.394 418.758 340.233 419.766 340.155C421.112 340.054 423.432 339.07 421.991 337.824C417.373 333.785 411.215 326.281 411.215 326.281L403.911 324.356Z" fill="#4F4D59"/>
<path d="M464.71 323.394L462.979 333.206C462.979 333.206 471.83 332.822 486.839 337.439C486.839 337.439 492.614 334.936 487.802 331.877C487.802 331.877 482.239 332.261 478.762 326.314C475.285 320.367 473.199 321.118 473.199 321.118L464.71 323.394Z" fill="#4F4D59"/>
<path d="M418.904 252.213L420.573 282.074C420.756 285.255 419.701 288.385 417.63 290.807C416.694 291.919 415.627 292.915 414.453 293.772C410.415 296.659 401.753 327.054 401.753 327.054C401.753 327.054 411.566 327.61 414.259 329.557C414.259 329.557 414.815 321.864 416.373 321.09C417.93 320.317 429.262 297.81 429.262 297.81L440.616 268.567C440.616 268.567 449.656 284.143 457.356 286.846V293.388C457.356 293.388 461.589 312.629 463.13 314.743C464.671 316.857 463.13 325.312 463.13 325.312C463.13 325.312 467.581 330.875 477.75 324.929C477.75 324.929 474.479 321.274 474.673 316.846C474.868 312.418 470.223 288.181 470.223 288.181C470.223 288.181 470.779 278.947 466.184 273.162C461.589 267.377 453.951 245.276 453.951 245.276L448.655 233.884L418.904 252.213Z" fill="#C48C96"/>
<g opacity="0.1">
<path opacity="0.1" d="M403.622 327.048C403.622 327.048 412.278 296.654 416.322 293.767C417.563 292.857 418.684 291.796 419.66 290.607C421.634 288.218 422.629 285.168 422.442 282.074L420.745 252.208L449.116 234.718L448.733 233.89L419.015 252.213L420.711 282.079C420.898 285.173 419.904 288.223 417.93 290.613C416.954 291.802 415.833 292.863 414.592 293.772C410.559 296.654 401.892 327.048 401.892 327.048C401.892 327.048 411.705 327.605 414.397 329.552C414.397 329.552 414.397 329.251 414.47 328.767C410.681 327.466 403.622 327.048 403.622 327.048Z" fill="black"/>
<path opacity="0.1" d="M464.999 325.319C464.999 325.319 466.54 316.852 464.999 314.75C463.458 312.647 459.224 293.394 459.224 293.394V286.842C451.53 284.149 442.485 268.562 442.485 268.562L441.817 270.309C444.426 274.448 451.386 284.717 457.5 286.853V293.394C457.5 293.394 461.733 312.636 463.274 314.75C464.815 316.864 463.274 325.319 463.274 325.319C463.274 325.319 465.421 328.022 470.161 327.655C466.617 327.36 464.999 325.319 464.999 325.319Z" fill="black"/>
</g>
<path d="M485.104 218.737L481.327 218.987L479.335 219.12V214.309L481.95 213.836L483.568 213.541C483.568 213.541 488.575 198.728 493.382 201.42C498.188 204.112 485.104 218.737 485.104 218.737Z" fill="#714B4F"/>
<path d="M424.5 179.08C424.5 179.08 421.997 188.698 421.229 194.656C420.461 200.613 439.12 195.813 439.12 195.813C439.12 195.813 431.999 187.157 436.044 182.54L424.5 179.08Z" fill="#714B4F"/>
<path d="M444.699 219.132L445.083 222.786L439.12 222.403L433.156 217.207L427.193 200.463L423.354 194.495L420.467 190.84L421.624 186.39C421.624 186.39 422.152 186.851 423.042 187.53C425.974 189.755 432.845 194.433 437.868 193.143C438.1 193.084 438.329 193.012 438.552 192.926L446.057 205.815L444.699 219.132Z" fill="#E6E6F0"/>
<path opacity="0.1" d="M423.154 185.26C423.154 185.26 420.078 185.817 417.958 190.456C416.334 194.005 410.837 197.688 408.384 199.173C407.916 199.459 407.51 199.835 407.19 200.28C406.87 200.726 406.642 201.23 406.52 201.765C406.025 203.957 405.836 208.045 408.529 213.925C412.762 223.159 415.839 227.198 415.839 227.198C415.839 227.198 416.606 236.432 415.455 239.124C414.303 241.817 415.455 256.63 415.455 256.63C415.455 256.63 435.654 260.479 442.391 256.63C449.128 252.781 448.165 237.967 448.165 237.967C448.165 237.967 454.513 251.434 456.821 251.818L455.475 244.314C455.475 244.314 447.971 236.232 447.587 225.846C447.587 225.846 445.278 216.417 447.203 213.92C447.203 213.92 479.719 216.612 481.644 214.303C481.644 214.303 460.287 213.341 457.016 208.145C457.016 208.145 447.587 200.641 447.203 195.64C447.147 194.702 446.853 193.793 446.347 192.999C445.842 192.206 445.143 191.555 444.316 191.107C443.007 190.362 441.505 190.027 440.004 190.145L435.66 190.445C435.66 190.445 443.164 203.718 442.78 205.464C442.396 207.211 443.164 221.24 443.164 221.24C443.164 221.24 434.48 202.577 430.658 200.463C426.837 198.35 422.381 189.649 422.381 189.649L423.148 185.255" fill="black"/>
<path opacity="0.1" d="M444.699 219.132L445.083 222.786L439.12 222.403L433.156 217.207L427.193 200.463L423.354 194.495L420.467 190.84L421.624 186.39C421.624 186.39 422.152 186.851 423.042 187.53L422.775 189.049C422.775 189.049 427.226 197.738 431.048 199.857C434.87 201.976 443.553 220.634 443.553 220.634C443.553 220.634 442.786 206.588 443.17 204.858C443.431 203.684 440.06 197.198 437.868 193.143C438.1 193.084 438.329 193.012 438.552 192.926L446.057 205.815L444.699 219.132Z" fill="black"/>
<path opacity="0.1" d="M481.327 218.987L479.335 219.121V214.309L481.95 213.836C481.037 215.043 481.071 217.179 481.327 218.987Z" fill="black"/>
<path d="M423.154 184.688C423.154 184.688 420.078 185.244 417.958 189.883C416.334 193.432 410.837 197.115 408.384 198.6C407.916 198.886 407.51 199.262 407.19 199.707C406.87 200.153 406.642 200.657 406.52 201.192C406.025 203.384 405.836 207.472 408.529 213.352C412.762 222.586 415.839 226.625 415.839 226.625C415.839 226.625 416.606 235.859 415.455 238.551C414.303 241.244 415.455 256.057 415.455 256.057C415.455 256.057 435.654 259.906 442.391 256.057C449.128 252.208 448.165 237.394 448.165 237.394C448.165 237.394 454.507 250.839 456.821 251.251L455.475 243.747C455.475 243.747 447.971 235.664 447.587 225.279C447.587 225.279 445.278 215.85 447.203 213.352C447.203 213.352 454.708 221.435 463.175 221.24C469.344 221.203 475.511 221.524 481.644 222.202C481.644 222.202 479.719 216.045 481.644 213.736C481.644 213.736 460.287 212.774 457.016 207.578C457.016 207.578 447.587 200.074 447.203 195.073C447.147 194.134 446.853 193.225 446.347 192.432C445.842 191.639 445.143 190.987 444.316 190.539C443.007 189.795 441.505 189.46 440.004 189.577L435.66 189.878C435.66 189.878 443.164 203.15 442.78 204.897C442.396 206.644 443.164 220.673 443.164 220.673C443.164 220.673 434.48 201.999 430.658 199.885C426.837 197.771 422.381 189.093 422.381 189.093L423.148 184.699" fill="#C48C96"/>
<path opacity="0.1" d="M418.904 204.886C418.904 204.886 423.521 220.461 426.213 222.392C428.906 224.322 445.261 234.129 450.073 231.82C450.073 231.82 451.23 237.594 449.517 238.941C449.517 238.941 431.576 238.24 431.432 238.173C431.432 238.173 419.693 236.632 417.769 230.864C415.844 225.095 413.535 215.288 413.535 215.288L418.904 204.886Z" fill="black"/>
<path d="M443.548 222.492C443.92 222.492 444.221 222.061 444.221 221.53C444.221 220.998 443.92 220.567 443.548 220.567C443.176 220.567 442.875 220.998 442.875 221.53C442.875 222.061 443.176 222.492 443.548 222.492Z" fill="#BA7855"/>
<path d="M445.467 229.223C445.839 229.223 446.14 228.792 446.14 228.26C446.14 227.729 445.839 227.298 445.467 227.298C445.095 227.298 444.794 227.729 444.794 228.26C444.794 228.792 445.095 229.223 445.467 229.223Z" fill="#BA7855"/>
<g opacity="0.1">
<path opacity="0.1" d="M416.806 255.846C416.806 255.846 415.649 241.032 416.806 238.34C417.964 235.648 417.19 226.413 417.19 226.413C417.19 226.413 414.114 222.375 409.881 213.141C407.182 207.261 407.377 203.172 407.872 200.981C407.994 200.446 408.222 199.941 408.542 199.496C408.862 199.051 409.268 198.674 409.736 198.389C412.189 196.887 417.68 193.221 419.31 189.672C420.506 187.068 422.002 185.75 423.082 185.094L423.154 184.671C423.154 184.671 420.078 185.227 417.958 189.866C416.334 193.415 410.837 197.098 408.384 198.583C407.916 198.869 407.51 199.246 407.19 199.691C406.87 200.136 406.642 200.641 406.52 201.175C406.025 203.367 405.836 207.456 408.529 213.336C412.762 222.57 415.839 226.608 415.839 226.608C415.839 226.608 416.606 235.842 415.455 238.535C414.303 241.227 415.455 256.04 415.455 256.04C415.455 256.04 429.885 258.788 438.419 257.314C429.802 258.343 416.806 255.846 416.806 255.846Z" fill="black"/>
<path opacity="0.1" d="M442.775 204.885C442.514 206.07 442.775 213.04 442.992 217.312C443.921 219.209 444.505 220.472 444.505 220.472C444.505 220.472 443.737 206.426 444.121 204.696C444.488 203.027 437.729 190.979 437.056 189.788L435.654 189.883C435.654 189.883 443.164 203.155 442.775 204.885Z" fill="black"/>
<path opacity="0.1" d="M464.521 221.045C456.054 221.24 448.549 213.157 448.549 213.157C448.324 213.471 448.16 213.823 448.065 214.197C450.291 216.267 456.41 221.39 463.175 221.234C469.345 221.197 475.511 221.518 481.644 222.197C481.644 222.197 481.605 222.069 481.544 221.852C475.889 221.267 470.206 220.998 464.521 221.045Z" fill="black"/>
<path opacity="0.1" d="M449.501 237.205C449.501 237.205 449.579 238.407 449.534 240.209C451.537 244.181 455.181 250.973 456.811 251.245L456.527 249.666C453.729 246.15 449.501 237.205 449.501 237.205Z" fill="black"/>
</g>
<path d="M454.896 235.264L450.808 236.126L447.581 236.804L449.311 231.993L450.518 231.692L452.393 231.225C452.393 231.225 455.086 217.758 460.476 218.72C465.867 219.682 454.896 235.264 454.896 235.264Z" fill="#714B4F"/>
<path opacity="0.1" d="M450.813 236.142L447.587 236.821L449.317 232.009L450.524 231.709C450.792 233.171 450.889 234.658 450.813 236.142Z" fill="black"/>
<path d="M418.904 204.502C418.904 204.502 423.521 220.078 426.213 222.008C428.906 223.938 445.261 233.745 450.073 231.437C450.073 231.437 451.23 237.211 449.517 238.557C449.517 238.557 431.576 237.856 431.432 237.789C431.432 237.789 419.693 236.248 417.769 230.48C415.844 224.711 413.535 214.904 413.535 214.904L418.904 204.502Z" fill="#C48C96"/>
<path opacity="0.1" d="M424.689 179.492C424.689 179.492 424.299 181 423.776 183.191C424.841 185.209 426.542 186.82 428.614 187.776C430.686 188.731 433.016 188.977 435.242 188.476C434.78 186.501 434.88 184.504 436.232 182.958L424.689 179.492Z" fill="black"/>
<path d="M432.772 188.342C438.511 188.342 443.163 183.69 443.163 177.951C443.163 172.212 438.511 167.56 432.772 167.56C427.032 167.56 422.38 172.212 422.38 177.951C422.38 183.69 427.032 188.342 432.772 188.342Z" fill="#714B4F"/>
<path opacity="0.1" d="M441.795 175.092C442.548 175.302 443.336 175.351 444.109 175.237C444.91 175.02 445.618 174.548 446.126 173.892C446.634 173.237 446.914 172.433 446.924 171.604C446.91 170.775 446.71 169.959 446.339 169.217C445.969 168.475 445.437 167.825 444.783 167.315C443.904 166.581 442.852 166.064 442.045 165.246C441.094 164.272 440.571 162.971 439.82 161.825C438.583 159.93 436.749 158.503 434.608 157.77C433.017 157.213 431.064 157.169 429.84 158.326C429.212 158.921 428.844 159.772 428.143 160.278C427.125 161.002 425.746 160.79 424.505 160.935C423.381 161.106 422.316 161.55 421.405 162.229C420.493 162.908 419.762 163.801 419.276 164.829C418.327 166.925 418.145 169.288 418.764 171.504C419.003 172.45 419.359 173.362 419.615 174.285C420.172 176.243 420.283 178.296 420.906 180.226C421.529 182.157 422.814 184.048 424.761 184.626C424.608 182.46 425.036 180.292 426.002 178.346C426.161 177.921 426.475 177.571 426.881 177.367C427.227 177.278 427.591 177.278 427.938 177.367C430.378 177.728 432.867 177.224 434.975 175.943C435.715 175.498 436.866 173.963 437.651 173.812C438.663 173.64 440.738 174.858 441.795 175.092Z" fill="black"/>
<path d="M441.795 174.708C442.548 174.918 443.336 174.968 444.109 174.853C444.91 174.636 445.618 174.164 446.126 173.509C446.634 172.853 446.914 172.05 446.924 171.22C446.91 170.391 446.71 169.575 446.339 168.833C445.969 168.091 445.437 167.441 444.783 166.931C443.904 166.197 442.852 165.68 442.045 164.862C441.094 163.889 440.571 162.587 439.82 161.441C438.583 159.546 436.749 158.119 434.608 157.386C433.017 156.83 431.064 156.785 429.84 157.942C429.212 158.537 428.844 159.388 428.143 159.895C427.125 160.618 425.746 160.406 424.505 160.551C423.381 160.722 422.316 161.166 421.405 161.845C420.493 162.524 419.762 163.417 419.276 164.445C418.327 166.541 418.145 168.904 418.764 171.12C419.003 172.066 419.359 172.978 419.615 173.902C420.172 175.86 420.283 177.912 420.906 179.842C421.529 181.773 422.814 183.664 424.761 184.243C424.612 182.077 425.044 179.911 426.013 177.968C426.172 177.542 426.486 177.193 426.892 176.989C427.238 176.9 427.602 176.9 427.949 176.989C430.389 177.35 432.878 176.846 434.986 175.565C435.726 175.12 436.877 173.584 437.662 173.434C438.663 173.256 440.738 174.474 441.795 174.708Z" fill="#503F43"/>
<path d="M545.463 140.414L536.985 235.37L498.878 245.939L460.877 235.37L452.41 140.414H545.463Z" fill="#E44D26"/>
<path d="M498.934 237.862L529.725 229.328L536.957 148.18H498.934V237.862Z" fill="#F16529"/>
<path d="M482.456 171.476H498.934V159.828H469.728L470.006 162.954L472.871 195.051H498.939V183.403H483.524L482.456 171.476ZM485.104 200.875H473.421L475.051 219.166L498.884 225.807H498.939V213.653H498.889L485.916 210.148L485.104 200.875Z" fill="#EBEBEB"/>
<path d="M461.071 114.603H466.99V120.449H472.403V114.603H478.322V132.314H472.403V126.384H466.99V132.314H461.071V114.603ZM486.105 120.477H480.892V114.603H497.237V120.477H492.024V132.314H486.111V120.477H486.105ZM499.835 114.603H506.01L509.809 120.827L513.603 114.603H519.778V132.314H513.881V123.536L509.809 129.833H509.709L505.631 123.536V132.314H499.835V114.603ZM522.721 114.603H528.64V126.457H536.985V132.309H522.738V114.603H522.721Z" fill="black"/>
<path d="M498.895 195.051H513.236L511.884 210.159L498.895 213.664V225.807L522.777 219.188L522.949 217.218L525.686 186.551L525.97 183.425H498.895V195.073V195.051ZM498.895 171.448V171.476H527.033L527.266 168.856L527.822 162.949L528.101 159.822H498.895V171.443V171.448Z" fill="white"/>
<path d="M204.014 210.516C202.929 207.339 201.366 203.284 200.119 202.361C200.044 202.301 199.962 202.25 199.875 202.21H199.719V198.289L196.793 198.756C196.323 197.339 195.968 195.886 195.73 194.411C196.012 194.694 196.371 194.886 196.762 194.964C197.153 195.042 197.559 195.003 197.928 194.851C197.878 194.773 197.839 194.69 197.794 194.606L197.928 194.551C197.467 193.738 197.224 192.82 197.221 191.886C197.245 191.034 197.382 190.188 197.627 189.372C198.15 187.564 199.035 185.873 199.53 184.059C199.846 182.888 199.996 181.679 199.975 180.466C199.99 178.411 199.521 176.382 198.606 174.541C198.379 174.012 198.024 173.547 197.572 173.19C197.16 172.962 196.737 172.756 196.303 172.572C195.578 172.084 194.953 171.46 194.462 170.737C192.384 168.207 189.602 166.35 186.468 165.402C185.652 165.099 184.767 165.03 183.914 165.202C181.951 165.758 181.233 168.167 179.642 169.44C178.234 170.553 176.304 170.681 174.546 171.059C172.741 171.366 171.08 172.237 169.801 173.546C168.969 174.497 168.516 175.72 168.527 176.984C168.479 177.573 168.583 178.165 168.83 178.703C169.076 179.24 169.456 179.706 169.934 180.054C170.478 180.412 171.094 180.645 171.739 180.736C172.383 180.827 173.04 180.775 173.662 180.583C173.176 182.26 173.042 184.02 173.269 185.752C173.495 187.484 174.077 189.151 174.978 190.647C175.879 192.144 177.08 193.438 178.505 194.448C179.929 195.459 181.548 196.164 183.258 196.52L183.603 197.132C184.655 199.094 185.453 201.182 185.978 203.345C183.286 204.875 180.343 206.305 178.568 206.438C178.498 207.132 178.369 207.818 178.184 208.491C177.77 210.179 176.972 211.749 175.853 213.08C173.439 215.795 162.574 236.321 162.574 236.321C162.574 236.321 162.229 237.139 161.673 238.546C154.925 239.375 143.916 240.571 140.84 239.953L128.768 228.483C128.768 228.483 124.874 231.459 125.207 235.075L123.032 233.006C123.032 233.006 111.561 241.756 129.674 247.469L157.234 250.667C154.608 258.588 152.16 267.806 152.917 272.823H153.145C153.672 272.823 154.198 272.782 154.719 272.701L154.669 273.591L152.016 321.113C152.016 321.113 151.409 329.863 159.559 333.791C159.559 333.791 169.523 363.067 165.595 366.388C165.595 366.388 166.062 366.633 166.847 366.978L158.652 374.209C158.652 374.209 152.617 375.717 149.295 375.417C148.712 375.337 148.119 375.475 147.631 375.804C147.142 376.134 146.792 376.631 146.647 377.202C146.647 377.263 146.647 377.325 146.614 377.391V377.469C146.614 377.53 146.614 377.597 146.614 377.664C146.614 377.731 146.614 377.714 146.614 377.736C146.614 377.758 146.614 377.847 146.614 377.903V377.975C146.614 378.042 146.614 378.103 146.653 378.17V378.242C146.671 378.313 146.694 378.381 146.72 378.448V378.515C146.748 378.582 146.781 378.648 146.814 378.715V378.76C146.853 378.826 146.892 378.893 146.937 378.96L146.976 379.016C147.024 379.086 147.078 379.157 147.137 379.227L147.181 379.283C147.243 379.355 147.309 379.422 147.382 379.494H147.415L147.638 379.683L147.688 379.722L147.96 379.917L148.027 379.961L148.344 380.145H148.394L148.734 380.312H148.784L149.179 380.473L149.262 380.506L149.701 380.651H149.774L150.247 380.773H150.286L150.842 380.879H150.948L151.504 380.963H151.61L152.249 381.024C153.49 381.118 155.164 381.152 157.1 381.146C157.1 381.146 157.1 381.196 157.1 381.218C157.1 381.241 157.1 381.33 157.1 381.385V381.458C157.1 381.524 157.1 381.586 157.139 381.652V381.725C157.158 381.795 157.18 381.864 157.206 381.93V381.997C157.234 382.064 157.267 382.131 157.301 382.197V382.242C157.34 382.309 157.378 382.376 157.423 382.442L157.462 382.498C157.51 382.568 157.564 382.639 157.623 382.709L157.668 382.765C157.729 382.837 157.796 382.904 157.868 382.976H157.896L158.118 383.165L158.168 383.204L158.441 383.399L158.508 383.444L158.819 383.627H158.869L159.209 383.794H159.259L159.654 383.955L159.737 383.989L160.177 384.133H160.249L160.722 384.256H160.761L161.317 384.361H161.423L161.979 384.445H162.085L162.725 384.506C170.574 385.112 195.624 383.299 195.624 383.299V383.227V383.138C195.875 381.969 197.076 375.177 192.804 370.154C192.932 370.021 193.054 369.882 193.171 369.737C193.171 369.737 189.833 364.002 191.664 362.194C193.494 360.386 182.824 329.274 182.824 329.274C182.824 329.274 177.088 320.218 180.41 309.955C183.731 299.691 180.109 288.527 180.109 288.527C180.109 288.527 188.036 286.18 188.181 276.428C188.181 276.133 188.181 275.827 188.181 275.521C188.347 275.546 188.514 275.557 188.682 275.555C188.793 275.563 188.904 275.563 189.016 275.555C189.016 275.555 187.508 270.12 189.316 266.198C191.124 262.277 195.051 265.898 198.673 249.9C201.293 238.324 203.596 225.012 204.676 218.531C205.119 215.846 204.891 213.092 204.014 210.516ZM135.132 244.448L132.378 241.834C133.29 242.212 134.303 242.579 135.432 242.946L145.807 244.164C141.179 244.582 136.856 244.815 135.132 244.465V244.448Z" fill="url(#paint1_linear)"/>
<path d="M161.406 242.924C161.406 242.924 140.055 245.889 135.605 244.999L123.744 233.729C123.744 233.729 112.473 242.328 130.27 247.964L163.481 251.818L161.406 242.924Z" fill="#FDC2CC"/>
<path opacity="0.05" d="M161.406 242.924C161.406 242.924 140.055 245.889 135.605 244.999L123.744 233.729C123.744 233.729 112.473 242.328 130.27 247.964L163.481 251.818L161.406 242.924Z" fill="black"/>
<path d="M119.611 250.405L73.4709 237.611L63.1904 122.296H176.17L165.879 237.594L119.611 250.405Z" fill="#264DE4"/>
<path d="M157.068 230.257L165.863 131.73H119.689V240.598L157.068 230.257Z" fill="#2965F1"/>
<path d="M86.7896 174.48L88.0579 188.621H119.712V174.48H86.7896ZM84.2417 145.854L85.5267 159.995H119.706V145.854H84.2139H84.2417ZM119.706 211.211H119.645L103.89 206.955L102.883 195.674H88.6587L90.6392 217.88L119.612 225.941H119.678L119.706 211.211Z" fill="#EBEBEB"/>
<path d="M89.7822 90.9443H106.911V98.1091H96.9419V105.274H106.911V112.439H89.7822V90.9443ZM110.366 90.9443H127.494V97.1746H117.503V98.4206H127.472V112.75H110.338V106.208H120.307V104.962H110.338V90.9443H110.366ZM130.949 90.9443H148.077V97.1746H138.058V98.4206H148.027V112.75H130.893V106.208H140.862V104.962H130.893V90.9443H130.949Z" fill="black"/>
<path d="M152.511 174.48L155.065 145.854H119.611V159.995H139.544L138.259 174.458H119.611V188.598H137.029L135.36 206.955L119.611 211.222V225.935L148.606 217.897L148.817 215.505L152.155 178.268L152.5 174.469L152.511 174.48Z" fill="white"/>
<path d="M169.123 363.312L158.742 372.501C158.742 372.501 152.812 373.986 149.552 373.686C146.292 373.386 144.806 378.726 152.517 379.321C160.227 379.916 184.838 378.136 184.838 378.136C184.838 378.136 187.208 368.646 180.093 363.312H169.123Z" fill="#47465A"/>
<path opacity="0.05" d="M169.123 363.312L158.742 372.501C158.742 372.501 152.812 373.986 149.552 373.686C146.292 373.386 144.806 378.726 152.517 379.321C160.227 379.916 184.838 378.136 184.838 378.136C184.838 378.136 187.208 368.646 180.093 363.312H169.123Z" fill="black"/>
<path opacity="0.3" d="M185.205 374.037C185.188 375.119 185.063 376.196 184.833 377.252C184.833 377.252 160.222 379.032 152.511 378.437C148.801 378.154 147.226 376.768 146.948 375.444C146.609 376.969 147.955 378.977 152.511 379.338C160.222 379.934 184.833 378.154 184.833 378.154C185.123 376.801 185.248 375.419 185.205 374.037Z" fill="white"/>
<path d="M181.272 195.212C181.272 195.212 187.798 204.402 185.422 210.632C183.047 216.862 197.878 204.107 197.878 204.107C197.878 204.107 193.133 195.769 195.508 186.868L181.272 195.212Z" fill="#FDC2CC"/>
<path d="M179.492 366.872L169.123 376.062C169.123 376.062 163.193 377.547 159.933 377.247C156.673 376.946 155.187 382.286 162.898 382.882C170.608 383.477 195.219 381.697 195.219 381.697C195.219 381.697 197.589 372.207 190.474 366.872H179.492Z" fill="#47465A"/>
<path d="M182.474 364.797C180.927 366.705 178.747 367.44 176.466 367.551C171.281 367.796 165.573 364.797 165.573 364.797C169.428 361.538 159.643 332.773 159.643 332.773C151.638 328.918 152.227 320.318 152.227 320.318L154.82 273.647L155.476 261.921L163.782 256.881L170.324 261.887L176.532 266.649C176.937 268.164 177.198 269.713 177.311 271.277C178.034 282.175 169.417 284.739 169.417 284.739C169.417 284.739 172.978 295.709 169.712 305.794C166.447 315.879 172.082 324.774 172.082 324.774C172.082 324.774 182.758 355.613 180.983 357.393C179.208 359.174 182.474 364.797 182.474 364.797Z" fill="#565171"/>
<path opacity="0.05" d="M182.474 364.797C180.927 366.705 178.747 367.44 176.466 367.551C171.281 367.796 165.573 364.797 165.573 364.797C169.428 361.538 159.643 332.773 159.643 332.773C151.638 328.918 152.227 320.318 152.227 320.318L154.82 273.647L155.476 261.921L163.782 256.881L170.324 261.887L176.532 266.649C176.937 268.164 177.198 269.713 177.311 271.277C178.034 282.175 169.417 284.739 169.417 284.739C169.417 284.739 172.978 295.709 169.712 305.794C166.447 315.879 172.082 324.774 172.082 324.774C172.082 324.774 182.758 355.613 180.983 357.393C179.208 359.174 182.474 364.797 182.474 364.797Z" fill="black"/>
<path d="M192.837 368.352C187.797 374.576 175.937 368.352 175.937 368.352C176.176 368.132 176.354 367.854 176.454 367.545C178.629 361.632 169.116 333.362 169.116 333.362C161.111 329.507 160.216 320.318 160.216 320.318L158.118 272.801L157.846 266.649L170.324 261.887L174.157 260.424L186.924 270.209C187.472 272.236 187.741 274.328 187.725 276.428C187.564 286.001 179.792 288.315 179.792 288.315C179.792 288.315 183.352 299.285 180.087 309.37C176.821 319.455 182.473 328.322 182.473 328.322C182.473 328.322 193.149 359.162 191.374 360.942C189.6 362.722 192.837 368.352 192.837 368.352Z" fill="#565171"/>
<path opacity="0.1" d="M187.725 276.428C185.16 276.06 179.97 272.973 177.305 271.299C176.287 270.659 175.636 270.231 175.636 270.231C175.636 270.231 172.966 262.816 165.851 268.451C163.536 270.33 160.922 271.808 158.118 272.823C157.047 273.202 155.943 273.48 154.819 273.652L155.476 261.926L163.781 256.886L170.324 261.892L174.156 260.429L186.924 270.208C187.472 272.235 187.741 274.328 187.725 276.428Z" fill="black"/>
<path d="M203.774 219.527C202.717 225.891 200.436 238.997 197.877 250.339C194.317 266.054 190.462 262.494 188.687 266.349C186.913 270.204 188.392 275.538 188.392 275.538C185.427 275.833 175.642 269.314 175.642 269.314C175.642 269.314 172.972 261.898 165.857 267.533C158.741 273.168 153.106 272.868 153.106 272.868C151.621 263.083 162.597 236.989 162.597 236.989C162.597 236.989 173.272 216.824 175.642 214.181C176.742 212.875 177.526 211.334 177.934 209.676C178.116 209.016 178.242 208.343 178.312 207.662C182.167 207.367 191.664 200.842 191.664 200.842L199.079 199.657V203.512C199.167 203.551 199.249 203.602 199.324 203.662C200.542 204.591 202.105 208.552 203.146 211.673C203.997 214.199 204.213 216.897 203.774 219.527Z" fill="#E1A0A7"/>
<path d="M169.122 247.374L165.289 246.929L135.911 243.519C118.109 237.884 129.385 229.284 129.385 229.284L141.246 240.554C144.667 241.238 158.091 239.642 164.104 238.885C165.907 238.652 167.047 238.496 167.047 238.496L169.122 247.374Z" fill="#FDC2CC"/>
<path opacity="0.1" d="M197.878 207.345C197.878 207.345 190.167 201.12 178.58 221.279C166.992 241.439 164.344 238.179 164.344 238.179C164.344 238.179 166.714 247.079 165.529 248.854C165.529 248.854 173.534 248.259 176.499 248.854C179.464 249.449 197.85 226.319 197.85 226.319C197.85 226.319 207.368 213.275 197.878 207.345Z" fill="black"/>
<path opacity="0.1" d="M197.583 206.159C197.583 206.159 189.873 199.935 178.307 220.094C166.742 240.253 164.071 236.993 164.071 236.993C164.071 236.993 173.261 247.073 176.227 247.668C179.192 248.263 197.578 225.134 197.578 225.134C197.578 225.134 207.074 212.089 197.583 206.159Z" fill="black"/>
<path opacity="0.1" d="M165.284 246.945C165.406 244.748 164.577 240.887 164.099 238.885C165.901 238.651 167.042 238.495 167.042 238.495L169.117 247.395L165.284 246.945Z" fill="black"/>
<path d="M197.878 206.749C197.878 206.749 190.167 200.524 178.58 220.689C166.992 240.854 164.344 237.588 164.344 237.588C164.344 237.588 166.714 246.489 165.529 248.263C165.529 248.263 173.534 247.668 176.499 248.263C179.464 248.858 197.85 225.729 197.85 225.729C197.85 225.729 207.368 212.679 197.878 206.749Z" fill="#E1A0A7"/>
<path opacity="0.1" d="M195.825 187.475L181.567 195.769C182.171 196.644 182.728 197.55 183.236 198.483C184.057 198.65 184.892 198.734 185.729 198.734C189.528 198.734 191.292 194.745 193.589 192.058C193.422 189.922 195.169 189.867 195.825 187.475Z" fill="black"/>
<path d="M185.422 198.155C192.302 198.155 197.878 192.579 197.878 185.7C197.878 178.821 192.302 173.245 185.422 173.245C178.543 173.245 172.967 178.821 172.967 185.7C172.967 192.579 178.543 198.155 185.422 198.155Z" fill="#FDC2CC"/>
<path opacity="0.1" d="M169.679 175.625C170.935 174.337 172.567 173.48 174.341 173.178C176.071 172.805 177.968 172.694 179.347 171.587C180.911 170.335 181.611 167.954 183.542 167.42C184.381 167.253 185.249 167.322 186.051 167.621C189.13 168.551 191.864 170.375 193.906 172.861C194.389 173.574 195.005 174.188 195.719 174.669C196.145 174.849 196.561 175.051 196.965 175.275C197.408 175.627 197.756 176.084 197.978 176.604C199.368 179.412 199.688 182.629 198.879 185.655C198.395 187.441 197.527 189.098 197.01 190.878C196.493 192.658 196.365 194.672 197.305 196.263C196.392 196.73 195.241 196.141 194.668 195.29C194.095 194.439 193.922 193.393 193.622 192.408C193.031 190.475 191.919 188.743 190.407 187.402C189.472 186.578 187.803 186.022 187.152 187.085C186.902 187.496 186.919 188.025 186.702 188.453C186.279 189.293 185.033 189.46 184.237 189.009C183.454 188.469 182.903 187.652 182.696 186.723C181.478 182.59 179.392 179.992 174.975 181.756C173.306 182.412 171.387 182.868 169.801 181.756C167.771 180.265 168.177 177.311 169.679 175.625Z" fill="black"/>
<path d="M169.679 175.326C170.935 174.038 172.567 173.181 174.341 172.878C176.071 172.505 177.968 172.394 179.347 171.287C180.911 170.035 181.611 167.655 183.542 167.121C184.381 166.953 185.249 167.022 186.051 167.321C189.13 168.252 191.864 170.075 193.906 172.561C194.389 173.274 195.005 173.888 195.719 174.369C196.145 174.549 196.561 174.751 196.965 174.975C197.408 175.327 197.756 175.784 197.978 176.305C199.368 179.112 199.688 182.329 198.879 185.355C198.395 187.141 197.527 188.799 197.01 190.579C196.493 192.359 196.365 194.372 197.305 195.963C196.392 196.431 195.241 195.841 194.668 194.99C194.095 194.139 193.922 193.093 193.622 192.108C193.031 190.176 191.919 188.443 190.407 187.102C189.472 186.279 187.803 185.722 187.152 186.785C186.902 187.196 186.919 187.725 186.702 188.153C186.279 188.993 185.033 189.16 184.237 188.709C183.454 188.169 182.903 187.352 182.696 186.423C181.478 182.29 179.392 179.692 174.975 181.456C173.306 182.112 171.387 182.568 169.801 181.456C167.771 179.97 168.177 177.017 169.679 175.326Z" fill="#8F5A6A"/>
<path opacity="0.05" d="M199.308 203.639H193.283C193.283 203.639 181.422 209.569 181.127 209.274C180.927 209.074 179.091 209.419 177.929 209.658C178.111 208.999 178.237 208.325 178.307 207.644C182.162 207.35 191.658 200.825 191.658 200.825L199.074 199.64V203.495C199.157 203.533 199.236 203.582 199.308 203.639Z" fill="black"/>
<path opacity="0.3" d="M195.58 377.591C195.563 378.672 195.438 379.749 195.208 380.806C195.208 380.806 170.597 382.586 162.886 381.991C159.176 381.707 157.601 380.322 157.323 378.998C156.984 380.522 158.33 382.531 162.886 382.892C170.597 383.487 195.208 381.707 195.208 381.707C195.498 380.355 195.623 378.973 195.58 377.591Z" fill="white"/>
<g opacity="0.05">
<path opacity="0.05" d="M163.036 267.238C159.036 270.409 155.498 271.688 153.173 272.245C153.173 272.467 153.217 272.684 153.251 272.896C153.251 272.896 158.886 273.19 166.001 267.561C167.104 266.616 168.407 265.935 169.812 265.569C168.26 264.807 166.046 264.857 163.036 267.238Z" fill="black"/>
<path opacity="0.05" d="M203.279 211.645C202.217 208.524 200.676 204.569 199.457 203.635C199.383 203.574 199.3 203.524 199.213 203.484C199.213 203.484 196.759 203.568 196.843 203.635C198.061 204.564 199.252 208.229 200.314 211.344C201.175 213.877 201.397 216.583 200.96 219.221C199.903 225.585 197.622 238.691 195.063 250.033C191.502 265.748 187.647 262.188 185.873 266.043C184.415 269.202 185.144 273.352 185.461 274.748C186.42 275.228 187.471 275.496 188.543 275.533C188.543 275.533 187.057 270.198 188.838 266.343C190.618 262.488 194.473 266.048 198.028 250.334C200.603 238.963 202.868 225.858 203.925 219.522C204.362 216.883 204.14 214.177 203.279 211.645Z" fill="black"/>
</g>
<path d="M237.743 267.033C238.762 266.201 239.505 265.08 239.873 263.817C240.152 262.538 239.606 261.008 238.383 260.541C237.014 260.018 235.551 260.964 234.444 261.926C233.337 262.888 232.063 263.979 230.611 263.773C231.357 263.096 231.916 262.238 232.231 261.282C232.547 260.326 232.61 259.304 232.413 258.316C232.351 257.906 232.178 257.522 231.913 257.203C231.151 256.391 229.777 256.742 228.864 257.381C225.971 259.417 225.165 263.345 225.148 266.882C224.859 265.609 225.104 264.279 225.092 262.989C225.081 261.698 224.725 260.207 223.624 259.529C222.941 259.162 222.174 258.979 221.399 259C220.097 258.95 218.65 259.084 217.76 260.035C216.648 261.214 216.943 263.2 217.905 264.485C218.867 265.77 220.325 266.599 221.671 267.5C222.75 268.141 223.67 269.018 224.364 270.064C224.445 270.209 224.512 270.362 224.564 270.52H232.714C234.54 269.59 236.232 268.417 237.743 267.033Z" fill="#006AF5"/>
<path d="M252.713 371.484C254.009 370.277 255.227 368.853 255.606 367.123C255.984 365.393 255.244 363.312 253.586 362.672C251.734 361.96 249.748 363.229 248.246 364.547C246.744 365.865 245.019 367.328 243.055 367.05C244.067 366.133 244.823 364.969 245.251 363.673C245.679 362.376 245.764 360.991 245.497 359.652C245.411 359.099 245.177 358.58 244.819 358.15C243.79 357.037 241.92 357.521 240.691 358.389C236.797 361.17 235.684 366.472 235.656 371.267C235.261 369.537 235.595 367.734 235.584 365.96C235.573 364.185 235.089 362.222 233.593 361.265C232.661 360.764 231.613 360.518 230.555 360.553C228.792 360.486 226.828 360.664 225.626 361.955C224.13 363.557 224.514 366.244 225.821 368.007C227.128 369.77 229.103 370.877 230.922 372.096C232.383 372.966 233.628 374.154 234.566 375.572C234.677 375.77 234.769 375.979 234.839 376.195H245.892C248.368 374.939 250.662 373.354 252.713 371.484Z" fill="#006AF5"/>
</g>
<defs>
<linearGradient id="paint0_linear" x1="447.347" y1="343.097" x2="447.347" y2="154.771" gradientUnits="userSpaceOnUse">
<stop stop-color="#808080" stop-opacity="0.25"/>
<stop offset="0.54" stop-color="#808080" stop-opacity="0.12"/>
<stop offset="1" stop-color="#808080" stop-opacity="0.1"/>
</linearGradient>
<linearGradient id="paint1_linear" x1="32292.4" y1="170746" x2="32292.4" y2="83989.1" gradientUnits="userSpaceOnUse">
<stop stop-color="#808080" stop-opacity="0.25"/>
<stop offset="0.54" stop-color="#808080" stop-opacity="0.12"/>
<stop offset="1" stop-color="#808080" stop-opacity="0.1"/>
</linearGradient>
<clipPath id="clip0">
<rect width="573" height="406" fill="white"/>
</clipPath>
</defs>
</svg>
